<svg xmlns="http://www.w3.org/2000/svg" xmlns:xlink="http://www.w3.org/1999/xlink" width="113.497314453125" height="137.447265625" viewBox="0 0 113.497314453125 137.447265625" fill="none">
<path d="M58.1441 127.765C54.0211 129.771 49.9912 131.672 46.0542 133.469C42.5749 135.061 38.742 136.059 35.088 137.168C33.9601 137.515 32.4785 137.482 31.5255 137.371C29.0867 137.091 26.6728 136.831 24.284 136.589C23.9122 136.551 23.5474 136.452 23.1894 136.29C22.7108 136.078 22.2239 136.165 21.7078 135.987C20.5897 135.611 19.3592 135.302 18.0164 135.061C16.299 134.749 14.2458 134.164 11.8569 133.306C10.8165 132.933 9.93003 132.429 9.19756 131.796C8.09885 130.846 6.85864 130.07 5.84317 129.009C3.39605 126.453 0.824073 122.195 0.478666 118.217C-0.190003 110.604 -0.158099 102.607 0.574379 94.2261C0.754729 92.1525 1.07933 90.1561 1.54822 88.2369C2.0421 86.2178 2.58866 84.2474 3.18796 82.3248C6.41475 72.0023 10.4863 62.2725 15.4028 53.1358C17.184 49.8325 19.2524 46.7657 21.2833 43.5975C22.2614 42.0737 22.8731 40.3135 23.9927 38.944C26.4939 35.8867 28.7038 33.4081 31.5171 29.9843C34.7939 26.0011 38.2301 22.2173 41.8258 18.6327C43.2075 17.2568 44.7004 15.9323 46.3039 14.6592C48.3973 13.0004 50.3034 11.1342 52.5174 9.59105C56.0104 7.15741 59.7019 5.02921 63.5919 3.20639C66.7215 1.74043 69.9748 0.854747 73.3512 0.54934C77.1855 0.205351 79.755 0.0237153 81.0588 0.00442225C83.5476 -0.0341492 85.7908 0.179635 87.7884 0.64578C89.3087 1.00263 90.8752 1.41413 92.4871 1.88027C93.1501 2.07317 93.776 2.34642 94.364 2.70006C96.6364 4.06314 98.9241 5.54196 101.227 7.13653C103.774 8.89665 106.408 11.0281 107.694 14.2059C108.477 16.1348 109.264 18.1151 110.058 20.1469C111.012 22.5838 111.688 24.6573 112.085 26.3676C113.672 33.1798 113.921 40.0612 112.834 47.0116C112.668 48.0773 112.767 49.1623 112.563 50.2231C112.278 51.7407 112.044 53.2356 111.864 54.7078C111.595 56.8971 111.004 59.4915 110.091 62.4909C108.373 68.1281 106.516 74.1173 104.011 79.1952C102.141 82.9758 100.048 86.5394 97.7309 89.8861C95.9609 92.439 94.1988 94.9108 92.4455 97.3027C88.3544 102.877 83.5975 107.593 78.4078 111.654C77.1093 112.666 75.8163 113.855 74.529 115.217C71.3132 118.618 67.7358 121.771 63.7958 124.674C62.8719 125.352 60.9879 126.383 58.1441 127.765Z"   fill="#B8A9D9" >
</path>
</svg>
