<svg xmlns="http://www.w3.org/2000/svg" xmlns:xlink="http://www.w3.org/1999/xlink" width="109.0008544921875" height="183.947021484375" viewBox="0 0 109.0008544921875 183.947021484375" fill="none">
<path d="M8.46306 165.578C6.44043 161.126 4.83536 156.459 3.64787 151.579C3.2206 149.818 2.88627 148.003 2.6449 146.135C2.27033 143.208 1.98733 140.247 1.17161 137.44C1.0551 137.045 0.976022 136.63 0.934412 136.196C0.637523 133.19 0.394759 130.297 0.206103 127.516C0.011883 124.651 -0.0449908 121.303 0.0354555 117.471C0.268514 106.413 1.44214 95.1195 3.16095 84.5827C3.54106 82.252 4.17505 79.553 5.06288 76.486C6.31974 72.1362 7.54746 68.1212 8.74606 64.4398C9.70048 61.5049 10.795 58.8025 12.0297 56.3335C15.9334 48.5117 19.5792 41.963 24.3194 35.3468C32.2934 24.2265 40.5753 14.3263 50.6594 6.46587C52.2533 5.22171 54.2177 4.88415 55.9323 3.94862C58.7998 2.37654 62.0169 1.20472 65.0966 1.0504C67.0414 0.953958 69.0573 0.725703 71.1436 0.365635C73.1275 0.0216426 75.1402 -0.0796268 77.1824 0.061828C79.359 0.206498 81.4357 1.46995 83.4667 2.39101C84.6873 2.94397 85.8847 3.58052 87.0583 4.30065C91.9567 7.29531 96.1851 12.542 98.7279 18.5313C100.534 22.7991 102.44 26.5991 103.83 31.2719C105.808 37.9332 107.142 44.5285 107.83 51.0578C108.158 54.1875 109.082 57.0134 108.995 60.2155C108.973 61.0835 108.952 61.9293 108.933 62.752C108.705 72.6349 108.151 80.2059 107.272 85.4652C106.356 90.9467 104.765 97.6112 102.498 105.459C102.177 106.577 101.894 107.611 101.649 108.559C101.314 109.861 100.891 110.966 100.38 111.872C99.2856 113.82 98.6946 116.072 97.9372 118.132C97.0299 120.601 95.8896 123.576 94.5162 127.058C93.7213 129.078 92.685 131.017 91.9692 132.888C89.0031 140.626 85.5322 148.051 81.5564 155.162C81.0778 156.016 80.1414 157.241 79.3715 158.109C72.4908 165.899 64.7511 172.383 56.1529 177.562C53.1593 179.366 49.9198 181.119 46.4352 182.823C45.4197 183.318 44.3834 183.613 43.3263 183.706C39.6917 184.018 36.7257 184.027 34.4284 183.735C30.4775 183.233 26.2117 182.211 21.6309 180.668C20.9442 180.436 20.2159 180.142 19.6208 179.679C17.6342 178.123 15.6727 176.376 13.736 174.437C11.4887 172.185 9.83644 168.592 8.46306 165.578Z"   fill="#B8A9D9" >
</path>
</svg>
