<svg xmlns="http://www.w3.org/2000/svg" xmlns:xlink="http://www.w3.org/1999/xlink" width="112.8367919921875" height="192.51025390625" viewBox="0 0 112.8367919921875 192.51025390625" fill="none">
<path d="M110.136 154.729C109.478 160.68 106.744 166.602 103.781 171.467C102.848 172.998 101.985 174.441 101.192 175.798C100.368 177.206 99.5161 178.654 98.6367 180.143C97.0719 182.79 93.4386 185.167 91.004 187.164C90.4987 187.579 89.9565 187.891 89.3767 188.099C83.6389 190.17 78.7654 191.564 74.7564 192.28C72.9473 192.602 70.8776 192.586 68.547 192.232C66.5381 191.927 64.6041 191.578 62.7455 191.186C58.6004 190.318 54.906 188.608 51.6627 186.055C46.6977 182.149 41.6453 178.267 37.1671 173.425C31.3129 167.098 25.9761 160.365 21.1567 153.225C18.7554 149.666 16.9034 145.388 14.9474 141.376C12.9497 137.282 11.4473 132.768 9.72433 128.438C8.45499 125.246 7.59766 122.121 6.56134 118.866C6.24783 117.882 5.98843 116.884 5.78313 115.871C5.49592 114.439 4.96738 113.146 4.65945 111.685C3.95193 108.334 3.21113 105.122 2.68674 101.804C2.30663 99.387 1.89184 96.9228 1.44237 94.4119C1.05949 92.2611 0.847234 90.1683 0.610017 88.0272C0.397762 86.1272 -0.0600299 84.1018 0.0065536 82.25C0.106439 79.4276 0.134183 76.497 0.0897942 73.459C0.062043 71.5301 0.0981131 69.7589 0.197998 68.1448C0.347822 65.753 0.468512 63.4624 0.768161 61.085C1.69208 53.7715 3.02662 47.0442 4.77181 40.9039C5.23515 39.2707 5.69989 37.6359 6.16601 35.9996C6.62934 34.36 7.16621 32.751 7.77658 31.1725C8.94745 28.128 10.1211 25.5915 11.2975 23.5629C12.6181 21.2868 13.9915 19.0348 15.4176 16.8069C17.2197 13.9906 20.2037 11.729 22.8505 10.0412C25.1812 8.55109 27.3037 6.76202 29.5094 5.13208C30.346 4.51965 31.3031 4.63056 32.123 4.17244C33.1662 3.59377 34.1956 3.00706 35.2111 2.41231C37.7803 0.904537 40.613 0.102428 43.7095 0.00598206C45.1828 -0.039026 47.0181 0.16994 49.2155 0.632883C51.7043 1.16334 54.2263 1.48643 56.6735 2.24353C59.029 2.97009 61.5411 3.92168 64.2104 5.09832C65.9222 5.85383 67.5715 6.84559 69.1588 8.07368C72.0387 10.308 74.6257 12.4604 76.9205 14.5307C78.6239 16.0642 80.4135 18.0671 82.2892 20.5393C90.9332 31.9392 96.3227 45.7985 101.467 59.8794C102.163 61.7828 102.854 64.0927 103.539 66.8091C105.067 72.8707 106.636 78.9419 107.822 85.2206C108.513 88.873 109.064 92.4285 109.478 95.8875C109.767 98.2958 110.054 100.472 110.34 102.417C111.03 107.143 111.656 112.129 112.217 117.376C112.308 118.218 112.391 119.141 112.466 120.144C112.535 121.06 112.604 121.97 112.67 122.873C112.9 126.001 112.892 129.455 112.645 133.236C112.431 136.544 112.128 140.597 111.734 145.393C111.601 147.049 111.351 148.608 110.985 150.071C110.585 151.666 110.302 153.218 110.136 154.729Z"   fill="#B8A9D9" >
</path>
</svg>
