<svg xmlns="http://www.w3.org/2000/svg" xmlns:xlink="http://www.w3.org/1999/xlink" width="112.7607421875" height="141.35302734375" viewBox="0 0 112.7607421875 141.35302734375" fill="none">
<path d="M20.3394 1.78239C20.861 1.53806 21.3673 1.3516 21.8584 1.22301C25.5124 0.248907 28.9695 -0.143309 32.2295 0.0463715C36.1291 0.277839 40.4323 1.10727 44.3486 2.70345C47.7391 4.08584 50.5038 5.34126 52.6429 6.46967C53.6555 7.00331 55.4742 8.37284 58.099 10.5783C60.3256 12.4541 62.7352 14.1805 65.045 15.8538C66.5545 16.9469 68.1026 18.1942 69.6895 19.5959C71.318 21.0329 72.8454 22.3398 74.2716 23.5164C76.4969 25.3489 78.393 27.0592 79.9607 28.6474C81.7836 30.4959 83.7159 32.7013 85.7581 35.2635C87.0815 36.9224 88.6588 38.3064 89.9656 39.999C93.0899 44.0465 95.6227 48.0811 97.565 52.1029C98.908 54.8868 100.448 58.2209 102.185 62.1043C103.254 64.4913 103.808 67.0278 104.686 69.4631C105.155 70.7651 105.567 72.1573 105.922 73.6392C106.371 75.5102 107.037 77.3475 107.562 79.2089C108.864 83.819 110.379 88.8294 111.174 93.3913C112.189 99.2069 112.556 104.497 112.71 110.202C112.839 114.99 112.797 118.94 111.698 123.222C111.249 124.977 110.726 126.447 110.129 127.629C108.767 130.33 107.283 132.46 105.676 134.019C103.82 135.82 101.474 137.581 98.6387 139.304C96.247 140.761 93.993 141.441 91.8759 141.344C87.6558 141.151 83.1403 140.558 78.8204 140.1C77.1861 139.926 75.4398 139.621 73.5808 139.184C72.2852 138.878 70.5747 138.375 68.4493 137.674C65.4558 136.687 62.5313 135.787 59.6763 134.974C57.4623 134.341 55.6561 133.677 54.2577 132.982C49.8712 130.798 44.7814 128.623 41.0566 126.033C38.7482 124.429 36.2928 122.468 33.6903 120.15C33.0161 119.552 32.389 118.88 31.8092 118.134C29.4148 115.074 27.1314 112.079 24.9589 109.15C21.2744 104.18 17.4816 98.1316 13.5807 91.0042C13.1104 90.1459 12.9273 89.0367 12.4403 88.1398C9.69357 83.0619 7.78333 76.682 5.68164 70.7892C4.76605 68.2238 3.97808 65.5315 3.31775 62.7119C2.51314 59.2722 1.72934 55.9173 0.966357 52.6478C0.504401 50.6755 0.641739 48.7755 0.400356 46.8033C-0.0879572 42.8522 -0.129575 38.4285 0.275504 33.5323C0.647287 29.0122 1.42554 24.5516 2.61025 20.1505C3.38989 17.2539 4.57045 14.6306 6.15192 12.2805C7.34218 10.5059 8.58101 9.09618 9.86837 8.05138C11.5747 6.66575 13.2297 5.51486 14.8333 4.59861C16.3621 3.72416 18.1974 2.78542 20.3394 1.78239Z"   fill="#B8A9D9" >
</path>
</svg>
