<svg xmlns="http://www.w3.org/2000/svg" xmlns:xlink="http://www.w3.org/1999/xlink" width="415.310546875" height="419.4849853515625" viewBox="0 0 415.310546875 419.4849853515625" fill="none">
<path d="M311.11 164.141C305.275 172.09 298.193 179.322 289.848 184.504C279.642 190.842 267.029 193.367 256.709 185.599C252.029 182.078 248.473 176.657 246.465 171.103C245.678 168.928 244.887 166.478 244.094 163.753C243.443 161.517 243.067 159.195 242.966 156.788C242.943 156.249 243.015 155.745 243.181 155.277C243.343 154.821 243.421 154.394 243.415 153.996C243.26 145.598 245.036 136.926 247.955 129.083C250.794 121.458 254.408 114.175 259.39 107.876C264.884 100.929 271.578 94.983 278.73 89.6616C286.391 83.9634 294.489 79.7229 303.027 76.9403C306.212 75.904 309.372 75.2921 312.506 75.1046C324.969 74.3618 333.005 81.9135 335.452 93.4969C336.417 98.058 336.628 102.83 336.084 107.813C334.599 121.386 329.624 134.232 322.645 146.414C319.147 152.52 315.302 158.429 311.11 164.141Z"   fill="#B8A9D9" >
</path>
<path d="M160.098 136.616C158.73 130.062 158.173 123.705 158.429 117.544C158.744 110.029 159.393 102.766 160.378 95.7564C161.119 90.4704 162.63 84.9998 164.911 79.3443C165.937 76.7964 167.066 74.2071 168.297 71.5762C170.954 65.898 174.139 60.5947 177.853 55.6662C181.445 50.8982 185.981 46.6773 190.928 43.5679C198.078 39.0726 206.578 37.7752 213.538 43.6466C215.407 45.224 217.175 47.1966 218.84 49.5647C221.37 53.1638 223.685 57.2591 225.787 61.8506C226.679 63.8014 227.475 65.7705 228.173 67.758C231.186 76.3317 233.189 85.4735 233.637 94.6209C233.966 101.319 233.858 108.061 233.312 114.849C232.915 119.792 232.142 124.427 230.991 128.756C229.179 135.58 226.803 141.856 223.863 147.582C218.396 158.218 210.185 166.476 198.954 170.824C194.854 172.41 190.383 173.238 186.155 172.618C178.59 171.514 173.197 166.054 169.207 159.966C168.299 158.579 167.261 156.703 166.094 154.339C164.767 151.657 163.553 149.034 162.452 146.469C161.715 144.758 161.08 142.876 160.547 140.823C160.184 139.421 160.4 138.058 160.098 136.616Z"   fill="#B8A9D9" >
</path>
<path d="M89.6579 85.4126C97.5056 81.0005 106.389 81.23 114.084 86.1889C123.264 92.1051 128.438 103.273 131.559 113.479C132.972 118.106 134.341 123.395 135.666 129.349C138.341 141.369 140.127 153.679 136.848 165.671C135.504 170.591 133.27 175.299 129.785 178.901C124.941 183.908 118.598 185.825 111.628 184.42C106.804 183.448 102.423 180.839 98.1642 178.254C97.3777 177.775 96.6928 177.13 95.9648 176.565C95.2882 176.042 94.7301 175.451 94.2901 174.794C93.8698 174.164 93.4035 173.582 92.8914 173.047C81.8412 161.522 75.0109 145.512 72.8627 129.754C72.0557 123.831 72.0237 118.131 72.7669 112.654C74.2244 101.909 79.9072 90.8979 89.6579 85.4126Z"   fill="#B8A9D9" >
</path>
<path d="M370.214 227.203C367.521 230.22 364.273 232.967 360.47 235.443C354.75 239.163 348.286 241.17 341.523 242.178C330.834 243.771 319.601 243.882 309.159 241.527C301.366 239.77 293.087 235.618 293.78 226.169C293.981 223.41 294.853 220.554 296.393 217.601C299.092 212.431 302.99 207.737 307.483 203.885C315.494 197.015 324.87 192.328 335.611 189.823C343.313 188.029 351.073 187.591 358.703 189.381C364.429 190.724 370.037 193.592 373.725 198.268C378.299 204.072 378.738 211.458 375.963 218.135C374.966 220.537 373.929 223.207 372.286 225.271C371.689 226.021 370.854 226.485 370.214 227.203Z"   fill="#B8A9D9" >
</path>
<path d="M110.525 343.138C109.864 342.435 109.167 341.734 108.435 341.036C107.556 340.2 106.956 339.182 106.068 338.339C105.4 337.704 104.99 336.984 104.512 336.216C103.886 335.211 102.906 334.538 102.359 333.459C101.599 331.948 100.878 330.776 100.198 329.944C98.2146 327.524 96.7137 325.095 95.6947 322.656C94.0714 318.778 93.0905 314.411 93.0161 310.034C92.9683 307.136 92.5608 304.039 93.4328 301.237C93.7372 300.253 93.7956 299.086 94.3076 298.23C94.549 297.825 94.8011 297.439 95.0639 297.071C97.2688 293.976 99.6333 290.83 102.672 288.678C103.213 288.292 103.826 287.982 104.509 287.749C105.303 287.474 106.135 287.073 107.005 286.546C109.722 284.898 113.483 283.759 116.642 283.141C118.039 282.868 119.418 282.524 120.776 282.107C122.712 281.513 124.657 281.073 126.609 280.786C128.925 280.444 131.288 279.295 133.352 278.216C134.634 277.544 135.414 276.44 135.691 274.902C135.911 273.687 136.3 272.533 136.86 271.44C137.503 270.185 137.428 268.424 137.612 267.018C137.937 264.566 137.077 261.495 135.988 259.474C134.555 256.81 132.787 254.613 130.685 252.882C128.81 251.339 127.074 249.614 125.268 248.062C124.271 247.205 122.841 246.226 120.98 245.123C118.667 243.753 116.259 241.46 115.548 238.78C114.706 235.585 114.483 232.706 115.381 229.587C115.755 228.293 116.074 227.001 116.339 225.711C116.602 224.448 116.939 223.215 117.35 222.012C119.271 216.384 121.941 210.898 125.521 205.919C127.403 203.304 129.348 201.412 131.357 200.244C132.396 199.642 133.359 198.956 134.244 198.188C137.332 195.505 141.075 193.25 144.828 191.417C151.367 188.223 158.234 186.205 165.426 185.361C168.737 184.973 171.892 184.967 174.894 185.344C176.295 185.523 177.72 185.814 179.014 186.382C180.475 187.025 181.97 187.417 183.373 188.221C184.944 189.124 186.199 189.897 187.139 190.54C187.913 191.072 188.771 191.97 189.713 193.234C190.365 194.106 190.919 195.201 191.375 196.518C192.295 199.177 192.911 201.274 193.223 202.809C194.474 208.951 196.428 214.995 199.086 220.941C200.046 223.09 201.518 225.177 203.503 227.202C205.469 229.211 208.073 230.093 210.856 229.863C212.609 229.72 214.442 229.655 216.046 228.912C217.389 228.29 218.724 227.597 219.924 226.689C221.409 225.566 223.063 224.66 224.579 223.572C226.928 221.89 229.345 220.208 231.572 218.371C234.891 215.633 237.246 213.768 238.638 212.777C241.071 211.043 243.793 210.444 246.737 209.803C247.718 209.589 248.668 209.526 249.588 209.615C252.303 209.873 254.881 210.532 257.322 211.59C258.472 212.088 259.637 212.57 260.816 213.035C261.582 213.337 262.293 213.683 262.948 214.071C264.736 215.128 266.043 216.732 267.736 217.934C269.549 219.22 271.221 220.797 272.751 222.662C275.59 226.118 277.91 229.629 279.71 233.195C281.801 237.336 283.515 241.672 284.851 246.202C286.553 251.962 287.4 258.313 286.436 264.264C286.215 265.63 285.844 266.891 285.325 268.05C284.644 269.57 284.012 270.799 283.43 271.735C282.807 272.741 282.243 273.743 281.738 274.742C281.453 275.307 281.134 275.775 280.746 276.265C279.336 278.043 277.888 279.803 276.401 281.544C275.156 283.005 273.878 284.21 272.109 285.009C270.386 285.785 268.769 286.367 267.259 286.754C265.24 287.269 263.083 287.185 261.003 287.38C258.996 287.571 257.079 287.874 255.133 288.539C253.469 289.108 251.868 289.673 250.331 290.233C248.625 290.852 246.921 291.607 245.469 292.8C244.593 293.519 243.677 294.212 242.721 294.879C241.587 295.67 241.023 297.706 240.517 298.97C239.194 302.263 239.514 306.08 240.927 309.291C241.448 310.48 241.9 311.933 242.724 312.958C244.449 315.098 246.586 316.874 248.33 319.021C249.029 319.881 249.891 320.604 250.534 321.498C251.384 322.68 252.291 323.926 253.256 325.235C253.931 326.152 254.524 327.044 255.035 327.913C256.081 329.686 257.115 331.529 257.564 333.581C258.025 335.681 258.271 337.312 258.302 338.474C258.326 339.343 258.221 340.38 257.988 341.583C257.51 344.052 256.876 346.231 256.084 348.121C253.115 355.214 248.919 361.267 243.498 366.282C240.709 368.861 237.686 370.952 234.428 372.555C232.624 373.441 230.988 374.333 229.522 375.233C225.177 377.896 219.128 378.887 214.189 378.831C211.026 378.797 208.751 378.783 207.364 378.787C204.835 378.792 202.29 378.393 199.731 377.589C198.405 377.171 197.352 376.712 196.573 376.213C195.6 375.592 194.623 374.944 193.642 374.27C192.491 373.477 191.341 372.366 190.191 370.937C188.845 369.258 187.881 367.902 187.298 366.87C185.88 364.347 184.617 360.875 183.611 357.875C182.509 354.591 181.38 351.266 180.224 347.898C179.694 346.357 178.939 344.588 177.958 342.591C176.283 339.175 173.661 338.331 170.389 337.174C168.49 336.504 166.543 336.439 164.528 336.86C163.574 337.058 162.664 337.224 161.798 337.356C158.468 337.871 156.294 339.394 153.749 341.558C152.754 342.403 151.558 343.016 150.638 343.917C149.395 345.133 148.19 346.245 147.023 347.252C142.901 350.804 138.457 353.322 133.69 354.807C131.704 355.427 129.878 355.523 128.213 355.097C127.508 354.917 126.778 354.786 126.024 354.706C124.494 354.54 123.171 354.122 122.056 353.449C120.561 352.546 119.009 351.644 117.399 350.743C116.963 350.499 116.568 350.217 116.213 349.898C115.701 349.439 115.128 349.069 114.733 348.506C113.926 347.367 113.07 346.447 112.115 345.49C111.431 344.805 111.211 343.866 110.525 343.138Z"   fill="#B8A9D9" >
</path>
</svg>
