<svg xmlns="http://www.w3.org/2000/svg" xmlns:xlink="http://www.w3.org/1999/xlink" width="424.546875" height="428.1983642578125" viewBox="0 0 424.546875 428.1983642578125" fill="none">
<path d="M264.483 110.489C265.053 120.576 264.167 130.912 260.938 140.456C256.989 152.129 248.641 162.366 235.381 162.982C229.369 163.262 223.006 161.308 217.784 158.238C215.737 157.036 213.509 155.619 211.099 153.987C209.121 152.649 207.305 151.062 205.652 149.228C205.281 148.817 205.009 148.373 204.834 147.895C204.665 147.429 204.448 147.042 204.183 146.731C198.57 140.204 194.309 132.2 191.496 124.103C188.763 116.23 186.867 108.12 186.7 99.8923C186.514 90.819 187.934 81.7513 190.126 72.8762C192.475 63.3722 196.123 54.7321 201.073 46.9556C202.921 44.0558 205.026 41.5075 207.388 39.3108C216.783 30.5782 228.091 31.2847 237.603 38.8267C241.35 41.7953 244.636 45.4236 247.462 49.7114C255.158 61.3937 259.61 74.7829 262.04 88.9587C263.258 96.0638 264.073 103.24 264.483 110.489Z"   fill="#B8A9D9" >
</path>
<path d="M126.768 187.475C121.399 183.198 116.802 178.545 112.977 173.516C108.314 167.379 104.081 161.223 100.28 155.048C97.4124 150.391 95.0343 145.086 93.1451 139.133C92.2934 136.451 91.4956 133.67 90.7516 130.789C89.1464 124.571 88.2051 118.304 87.9276 111.987C87.6586 105.876 88.4956 99.5801 90.3854 93.8924C93.1154 85.6712 99.0059 79.0915 108.362 79.1754C110.875 79.1984 113.566 79.6 116.434 80.3802C120.792 81.5669 125.305 83.2852 129.973 85.5352C131.955 86.4913 133.873 87.5254 135.726 88.6373C143.72 93.4337 151.283 99.3393 157.618 106.265C162.257 111.336 166.578 116.728 170.583 122.441C173.499 126.601 175.916 130.765 177.834 134.933C180.859 141.503 183.077 148.008 184.489 154.449C187.108 166.417 185.996 178.301 179.934 189.073C177.721 193.004 174.717 196.581 170.96 198.855C164.241 202.929 156.396 202.145 149.253 199.948C147.626 199.447 145.577 198.646 143.106 197.543C140.301 196.294 137.624 195.017 135.075 193.713C133.372 192.844 131.638 191.774 129.874 190.502C128.669 189.633 127.949 188.416 126.768 187.475Z"   fill="#B8A9D9" >
</path>
<path d="M37.4511 193.111C40.7886 184.499 47.9812 178.874 57.3238 177.757C68.4689 176.426 79.8714 181.857 89.0176 187.871C93.1619 190.599 97.705 193.879 102.647 197.711C112.625 205.448 122.089 213.996 127.327 225.603C129.479 230.364 130.785 235.539 130.376 240.66C129.809 247.778 126.034 253.437 119.589 256.884C115.129 259.27 109.951 260.075 104.884 260.819C103.947 260.954 102.983 260.893 102.037 260.924C101.158 260.953 100.329 260.851 99.5508 260.62C98.8063 260.398 98.0559 260.243 97.3002 260.156C81.0055 258.283 65.1253 250.114 53.121 239.082C48.6098 234.936 44.8585 230.458 41.867 225.65C35.9989 216.218 33.3064 203.813 37.4511 193.111Z"   fill="#B8A9D9" >
</path>
<path d="M352.564 121.621C352.402 125.763 351.622 130.053 350.227 134.494C348.123 141.168 344.31 146.977 339.607 152.193C332.175 160.437 323.341 167.867 313.524 172.835C306.197 176.542 296.919 178.676 291.292 170.767C289.648 168.458 288.471 165.634 287.762 162.297C286.522 156.453 286.544 150.201 287.589 144.224C289.449 133.566 293.818 123.738 300.696 114.741C305.63 108.29 311.496 102.872 318.715 99.2978C324.132 96.6144 330.453 95.2121 336.434 96.4921C343.854 98.082 349.03 103.624 351.195 110.707C351.975 113.255 352.898 116.04 352.945 118.743C352.962 119.725 352.603 120.637 352.564 121.621Z"   fill="#B8A9D9" >
</path>
<path d="M222.467 382.861C221.482 382.738 220.472 382.64 219.436 382.569C218.192 382.484 217.05 382.072 215.796 381.987C214.851 381.922 214.056 381.622 213.174 381.329C212.021 380.945 210.804 381.054 209.665 380.56C208.075 379.865 206.738 379.411 205.654 379.199C202.5 378.586 199.722 377.65 197.32 376.391C193.498 374.392 189.865 371.586 186.946 368.181C185.013 365.925 182.666 363.747 181.525 360.966C181.123 359.99 180.407 359.032 180.253 358.021C180.18 357.544 180.128 357.075 180.095 356.612C179.82 352.729 179.638 348.7 180.641 345.016C180.818 344.357 181.101 343.713 181.489 343.082C181.939 342.346 182.337 341.485 182.682 340.501C183.759 337.424 185.996 334.067 188.096 331.514C189.026 330.386 189.894 329.213 190.698 327.996C191.845 326.262 193.099 324.644 194.459 323.141C196.072 321.357 197.195 318.906 198.125 316.705C198.702 315.337 198.599 313.956 197.814 312.561C197.193 311.459 196.748 310.293 196.476 309.065C196.166 307.654 194.956 306.313 194.182 305.084C192.837 302.936 190.148 301.075 187.963 300.191C185.086 299.026 182.248 298.448 179.45 298.456C176.955 298.464 174.451 298.237 172.004 298.193C170.654 298.169 168.881 298.33 166.684 298.676C163.955 299.107 160.547 298.871 158.231 297.221C155.475 295.25 153.416 293.124 152.09 290.076C151.54 288.81 150.949 287.582 150.316 286.39C149.698 285.222 149.159 284.029 148.699 282.811C146.543 277.113 145.073 271.039 144.657 264.77C144.439 261.476 144.745 258.711 145.574 256.476C146.004 255.321 146.319 254.151 146.518 252.966C147.213 248.83 148.706 244.604 150.484 240.705C153.581 233.91 157.705 227.829 162.856 222.462C165.226 219.991 167.724 217.924 170.35 216.26C171.578 215.485 172.898 214.782 174.295 214.386C175.874 213.938 177.316 213.27 178.954 212.987C180.789 212.673 182.29 212.463 183.455 212.356C184.417 212.27 185.684 212.418 187.257 212.799C188.344 213.061 189.499 213.563 190.721 214.305C193.189 215.802 195.048 217.054 196.299 218.062C201.306 222.091 206.806 225.583 212.799 228.538C214.965 229.607 217.497 230.291 220.394 230.592C223.266 230.892 225.907 229.886 227.963 227.885C229.259 226.627 230.67 225.377 231.456 223.743C232.114 222.374 232.719 220.954 233.078 219.453C233.521 217.597 234.239 215.8 234.731 213.951C235.493 211.088 236.31 208.181 236.874 205.276C237.716 200.945 238.364 197.934 238.82 196.242C239.615 193.283 241.382 191.031 243.297 188.601C243.934 187.791 244.646 187.12 245.434 186.589C247.755 185.019 250.23 183.854 252.857 183.093C254.094 182.734 255.333 182.353 256.571 181.949C257.377 181.687 258.166 181.495 258.938 181.373C261.047 181.039 263.131 181.45 265.26 181.291C267.538 181.122 269.894 181.273 272.327 181.745C276.836 182.617 280.97 183.871 284.729 185.509C289.094 187.41 293.287 189.711 297.307 192.412C302.422 195.846 307.245 200.305 310.371 205.631C311.088 206.853 311.619 208.091 311.965 209.345C312.419 210.99 312.721 212.372 312.871 213.492C313.035 214.693 313.243 215.853 313.496 216.971C313.639 217.604 313.692 218.18 313.704 218.821C313.749 221.146 313.751 223.481 313.71 225.827C313.679 227.794 313.453 229.58 312.574 231.367C311.715 233.106 310.813 234.622 309.868 235.914C308.605 237.641 306.84 238.985 305.318 240.498C303.852 241.96 302.53 243.452 301.422 245.25C300.474 246.786 299.575 248.278 298.722 249.725C297.774 251.329 296.917 253.038 296.545 254.929C296.321 256.069 296.048 257.215 295.726 258.366C295.344 259.731 296.227 261.707 296.652 263.035C297.756 266.499 300.505 269.302 303.725 270.912C304.915 271.51 306.222 272.361 307.546 272.631C310.313 273.193 313.168 273.197 315.954 273.752C317.07 273.973 318.227 273.981 319.32 274.266C320.767 274.643 322.301 275.033 323.921 275.436C325.056 275.718 326.11 276.035 327.083 276.386C329.071 277.101 331.095 277.88 332.793 279.206C334.531 280.562 335.792 281.688 336.576 282.586C337.164 283.256 337.758 284.142 338.359 285.244C339.594 287.505 340.516 289.64 341.124 291.648C343.406 299.187 344.037 306.706 343.017 314.207C342.492 318.066 341.462 321.692 339.927 325.086C339.076 326.965 338.363 328.738 337.788 330.407C336.084 335.349 331.936 340.085 327.984 343.269C325.454 345.309 323.641 346.785 322.544 347.695C320.542 349.352 318.264 350.701 315.71 351.739C314.385 352.276 313.25 352.602 312.306 352.717C311.129 352.863 309.931 352.991 308.713 353.1C307.282 353.226 305.644 353.101 303.798 352.725C301.633 352.28 299.982 351.84 298.846 351.407C296.073 350.343 292.802 348.429 290.043 346.718C287.022 344.847 283.953 342.961 280.836 341.059C279.408 340.188 277.653 339.286 275.57 338.352C272.009 336.75 269.379 337.798 266.028 339.024C264.085 339.737 262.498 340.958 261.176 342.607C260.55 343.388 259.936 344.113 259.337 344.783C257.033 347.366 256.305 349.989 255.702 353.36C255.465 354.678 254.918 355.944 254.777 357.255C254.587 359.028 254.358 360.693 254.092 362.25C253.146 367.748 251.268 372.64 248.46 376.927C247.29 378.716 245.906 379.985 244.307 380.736C243.63 381.055 242.966 381.43 242.316 381.859C240.994 382.729 239.672 383.263 238.349 383.461C236.573 383.725 234.753 384.028 232.887 384.369C232.383 384.461 231.885 384.498 231.395 384.478C230.689 384.451 229.993 384.533 229.311 384.347C227.927 383.975 226.647 383.808 225.264 383.678C224.274 383.584 223.486 382.987 222.467 382.861Z"   fill="#B8A9D9" >
</path>
</svg>
