<svg xmlns="http://www.w3.org/2000/svg" xmlns:xlink="http://www.w3.org/1999/xlink" width="23" height="24" viewBox="0 0 23 24" fill="none">
<path d="M17.5894 6.76795C17.5641 5.83071 17.4215 4.89871 17.1635 3.99474L17.1477 3.93914L17.1268 3.8853C16.1199 1.2951 14.2444 0 11.5 0C8.76423 0 6.88908 1.29399 5.87457 3.88196L5.85283 3.93741L5.83647 3.99474C5.57855 4.89871 5.43589 5.83071 5.41058 6.76795L2.72121 6.76795C2.46614 6.75403 2.21075 6.77243 1.95883 6.8166L1.93025 6.82162L1.90193 6.82801C0.865486 7.06223 0.248151 7.71016 0.0499276 8.77181L0.0473865 8.78541L0.0451479 8.79907C0.0101571 9.01257 -0.00339749 9.23923 0.004484 9.47906L0.004484 21.2327C-0.00919567 21.4921 0.00889465 21.7518 0.0523296 22.008L0.0561654 22.0306L0.0608302 22.0531C0.329644 23.348 1.11756 23.9954 2.42459 23.9954L20.2788 23.9954C20.5338 24.0093 20.7892 23.991 21.0412 23.9468L21.0634 23.9429L21.0855 23.9382C22.3588 23.6648 22.9955 22.8635 22.9955 21.5344L22.9955 9.53068C23.0092 9.27129 22.9911 9.01158 22.9477 8.75538L22.9436 8.73139L22.9386 8.70752C22.6671 7.41447 21.8794 6.76795 20.5754 6.76795L17.5894 6.76795ZM14.8552 4.73724C15.1392 5.75869 15.2344 6.82504 15.1356 7.88213L15.0098 9.22902L20.5711 9.22902C20.5789 9.2887 20.5824 9.34875 20.5783 9.40892L20.5754 9.45119L20.5754 21.53C20.5167 21.5379 20.4577 21.5414 20.3985 21.5373L20.3569 21.5344L2.42889 21.5344C2.42114 21.4747 2.41764 21.4146 2.42173 21.3545L2.42459 21.3122L2.42459 9.43206L2.42362 9.40751C2.42098 9.34028 2.42253 9.28207 2.42826 9.23289C2.48574 9.22539 2.54354 9.22206 2.6015 9.22612L2.64307 9.22902L7.99024 9.22902L7.86439 7.88213C7.76571 6.82563 7.86064 5.75989 8.14428 4.73897C8.75862 3.22037 9.8772 2.46107 11.5 2.46107C13.1285 2.46107 14.2469 3.21979 14.8552 4.73724ZM15.1302 15.3817C15.1302 13.3429 13.5049 11.6901 11.5 11.6901C9.49512 11.6901 7.86984 13.3429 7.86984 15.3817C7.86984 17.4205 9.49512 19.0733 11.5 19.0733C13.5049 19.0733 15.1302 17.4205 15.1302 15.3817ZM10.2899 15.3817C10.2899 14.7021 10.8317 14.1512 11.5 14.1512C12.1683 14.1512 12.7101 14.7021 12.7101 15.3817C12.7101 16.0613 12.1683 16.6122 11.5 16.6122C10.8317 16.6122 10.2899 16.0613 10.2899 15.3817Z" fill-rule="evenodd"  fill="#B8A9D9" >
</path>
</svg>
