<svg xmlns="http://www.w3.org/2000/svg" xmlns:xlink="http://www.w3.org/1999/xlink" width="32.625" height="27" viewBox="0 0 32.625 27" fill="none">
<path   fill="rgba(184, 169, 217, 1)"  d="M4.21875 10.6875L22.7812 10.6875C23.5579 10.6875 24.1875 11.3171 24.1875 12.0938L24.1875 22.7812C24.1875 23.5579 23.5579 24.1875 22.7812 24.1875L4.21875 24.1875C3.4421 24.1875 2.8125 23.5579 2.8125 22.7812L2.8125 12.0938C2.8125 11.3171 3.4421 10.6875 4.21875 10.6875ZM4.21875 12.9375C4.68474 12.9375 5.0625 12.5597 5.0625 12.0938L5.0625 22.7812C5.0625 22.3153 4.68474 21.9375 4.21875 21.9375L22.7812 21.9375C22.3153 21.9375 21.9375 22.3153 21.9375 22.7812L21.9375 12.0938C21.9375 12.5597 22.3153 12.9375 22.7812 12.9375L4.21875 12.9375Z">
</path>
<path   fill="rgba(184, 169, 217, 1)"  d="M23.625 8.4375C23.625 6.26288 21.8621 4.5 19.6875 4.5C17.5129 4.5 15.75 6.26288 15.75 8.4375L15.75 11.8125L13.5 11.8125L13.5 8.4375C13.5 5.02024 16.2702 2.25 19.6875 2.25C23.1048 2.25 25.875 5.02024 25.875 8.4375L23.625 8.4375Z">
</path>
<path    stroke="rgba(184, 169, 217, 1)" stroke-width="2.250000000000001"    d="M13.5 19.6875L13.5 15.1875">
</path>
</svg>
