<svg xmlns="http://www.w3.org/2000/svg" xmlns:xlink="http://www.w3.org/1999/xlink" width="105" height="107" viewBox="0 0 105 107" fill="none">
<path d="M79.0887 28.0286C78.1903 31.1077 76.8301 34.1071 74.8535 36.6209C72.4362 39.6958 68.8553 41.8742 64.8253 40.6523C62.9981 40.0986 61.3023 38.8391 60.0663 37.3666C59.5817 36.7898 59.0655 36.1295 58.5178 35.3855C58.0683 34.7752 57.6935 34.1078 57.3933 33.3834C57.326 33.2213 57.2916 33.0594 57.2902 32.8979C57.2888 32.7406 57.265 32.6015 57.2187 32.4805C56.232 29.932 55.8059 27.0847 55.8227 24.3632C55.8396 21.7172 56.132 19.089 56.9536 16.6088C57.8593 13.8736 59.2447 11.3105 60.8405 8.88691C62.5496 6.29161 64.556 4.09275 66.8598 2.2903C67.7196 1.6184 68.619 1.079 69.558 0.672087C73.2924 -0.945078 76.5987 0.465484 78.6437 3.73128C79.4495 5.01704 80.0476 6.45138 80.4383 8.03428C81.5018 12.3467 81.4145 16.8259 80.6392 21.326C80.2506 23.5816 79.7338 25.8157 79.0887 28.0286Z"   fill="#003366" >
</path>
<path d="M29.7543 36.4647C28.6021 34.6153 27.7205 32.7353 27.1097 30.8245C26.3656 28.4935 25.7523 26.2023 25.2699 23.9511C24.9059 22.2535 24.7569 20.4136 24.8228 18.4315C24.8522 17.5386 24.9083 16.6217 24.9911 15.6806C25.1699 13.6495 25.5525 11.6741 26.1388 9.75416C26.7058 7.89683 27.6231 6.10138 28.7907 4.59957C30.478 2.42867 32.9364 1.08418 35.7251 2.10146C36.4741 2.37484 37.236 2.78035 38.011 3.31801C39.1884 4.13533 40.3558 5.12814 41.5129 6.29644C42.0045 6.79286 42.4684 7.30569 42.9046 7.83495C44.7866 10.1181 46.4223 12.6875 47.5826 15.4321C48.4326 17.4415 49.1535 19.5134 49.7454 21.648C50.1767 23.2023 50.4583 24.7047 50.5902 26.1555C50.7984 28.4424 50.7725 30.6245 50.5123 32.7018C50.0274 36.5612 48.4358 40 45.4819 42.581C44.4037 43.5227 43.1266 44.2747 41.7622 44.5568C39.3217 45.0634 37.059 43.9968 35.156 42.582C34.7226 42.2596 34.1949 41.8024 33.5729 41.2103C32.8666 40.5391 32.2015 39.8731 31.5773 39.2124C31.16 38.7719 30.7551 38.2678 30.3623 37.7001C30.0941 37.3121 30.0078 36.8716 29.7543 36.4647Z"   fill="#003366" >
</path>
<path d="M2.45093 28.68C4.36126 26.4566 7.10789 25.5358 10.0197 26.1924C13.4932 26.9758 16.3271 29.8105 18.4247 32.5803C19.3749 33.836 20.3858 35.2993 21.4575 36.9703C23.6213 40.3441 25.5453 43.9056 25.8819 47.9349C26.0208 49.5877 25.863 51.2751 25.1982 52.7644C24.2746 54.8346 22.5462 56.1277 20.254 56.4759C18.6677 56.7171 17.034 56.4087 15.4403 56.0941C15.1458 56.0354 14.8639 55.9148 14.5777 55.8235C14.3119 55.739 14.0749 55.6208 13.8666 55.4691C13.6675 55.3237 13.4595 55.1979 13.2428 55.0915C8.56904 52.8032 4.68631 48.6743 2.26578 44.0996C1.3562 42.3804 0.708902 40.6426 0.323891 38.8863C-0.431406 35.4412 0.0777356 31.4434 2.45093 28.68Z"   fill="#003366" >
</path>
<path d="M104.246 40.7006C103.758 41.9227 103.071 43.1242 102.183 44.3051C100.847 46.0796 99.091 47.4136 97.1323 48.4759C94.0364 50.155 90.6081 51.4418 87.1461 51.8875C84.5626 52.22 81.5624 51.8749 80.7177 48.9112C80.4708 48.0456 80.4182 47.0759 80.5599 46.0019C80.8082 44.1215 81.4772 42.2527 82.4229 40.5747C84.1081 37.5823 86.4557 35.1045 89.4657 33.1412C91.6243 31.7338 93.9523 30.7343 96.4896 30.4302C98.3936 30.2016 100.432 30.4522 102.085 31.4695C104.135 32.7322 105.096 34.9398 104.992 37.289C104.956 38.1343 104.937 39.0656 104.664 39.8794C104.565 40.1751 104.361 40.41 104.246 40.7006Z"   fill="#003366" >
</path>
<path d="M37.6678 105.087C37.3867 104.946 37.095 104.81 36.7926 104.678C36.4298 104.521 36.1321 104.277 35.766 104.118C35.4904 103.999 35.2842 103.825 35.0517 103.643C34.7477 103.406 34.3721 103.31 34.0839 103.041C33.6821 102.664 33.3304 102.387 33.0288 102.208C32.1508 101.69 31.4193 101.116 30.8345 100.484C29.9035 99.4807 29.1145 98.2558 28.6022 96.927C28.2635 96.0471 27.7922 95.1462 27.7459 94.1929C27.7291 93.8584 27.6166 93.4955 27.6776 93.1767C27.7063 93.0263 27.7403 92.8802 27.7796 92.7383C28.1089 91.5469 28.4813 90.322 29.1713 89.3257C29.2941 89.1474 29.4469 88.9844 29.63 88.837C29.8425 88.6643 30.0525 88.4489 30.2601 88.1909C30.9081 87.3845 31.9327 86.6168 32.831 86.0756C33.2287 85.8365 33.6123 85.5775 33.9819 85.2985C34.5085 84.9014 35.0549 84.55 35.6208 84.2445C36.292 83.8817 36.8873 83.2671 37.3985 82.7071C37.7162 82.3589 37.8316 81.9345 37.7446 81.4339C37.6759 81.0381 37.6662 80.6421 37.7152 80.2457C37.772 79.7905 37.5521 79.2609 37.4511 78.811C37.2765 78.0255 36.6696 77.1833 36.11 76.6873C35.3729 76.0335 34.5857 75.5594 33.7483 75.2652C33.0015 75.003 32.2767 74.6695 31.5498 74.3968C31.1486 74.2464 30.6013 74.1066 29.9077 73.9773C29.0462 73.8169 28.0521 73.3848 27.5345 72.6454C26.9191 71.7634 26.5288 70.9087 26.4552 69.8557C26.425 69.4187 26.3784 68.9884 26.3153 68.5647C26.2543 68.1494 26.2196 67.7352 26.2112 67.322C26.1701 65.3881 26.3742 63.4144 26.9139 61.4941C27.1979 60.4852 27.5822 59.6903 28.0668 59.1093C28.3178 58.8093 28.536 58.4926 28.7211 58.159C29.367 56.9949 30.2611 55.8885 31.2058 54.91C32.8517 53.2048 34.7291 51.8222 36.8379 50.7623C37.8085 50.2742 38.7745 49.9205 39.736 49.7009C40.1851 49.5992 40.6543 49.5289 41.114 49.5583C41.6337 49.5919 42.1355 49.5447 42.6551 49.6338C43.2373 49.7345 43.7081 49.8306 44.0679 49.9222C44.3645 49.9984 44.7279 50.1771 45.1577 50.4581C45.4551 50.6518 45.7472 50.9245 46.034 51.2761C46.6133 51.9858 47.0365 52.5577 47.3037 52.9919C48.3739 54.7286 49.6484 56.357 51.1275 57.8769C51.6619 58.4265 52.3464 58.8998 53.1809 59.297C54.0077 59.6913 54.904 59.6703 55.7308 59.2896C56.2515 59.0505 56.8059 58.8261 57.214 58.4202C57.5559 58.0804 57.8873 57.7196 58.1534 57.3085C58.4827 56.7999 58.8877 56.3384 59.2306 55.8371C59.7618 55.0611 60.3141 54.2776 60.7907 53.468C61.5011 52.2613 62.0141 51.4289 62.3296 50.971C62.8809 50.1697 63.6477 49.6831 64.4777 49.1587C64.7541 48.9839 65.0381 48.8588 65.3298 48.7833C66.1903 48.5595 67.0536 48.4732 67.9197 48.5242C68.3278 48.548 68.7385 48.5651 69.1515 48.5756C69.4202 48.5826 69.6764 48.6088 69.9205 48.6543C70.5864 48.778 71.166 49.122 71.8192 49.3003C72.5185 49.4912 73.2068 49.7862 73.8842 50.1854C75.1402 50.9245 76.2434 51.7383 77.1936 52.6269C78.2975 53.6589 79.3074 54.7922 80.2232 56.027C81.3888 57.5969 82.3587 59.4428 82.729 61.3683C82.8139 61.8101 82.8415 62.2369 82.8121 62.6488C82.7736 63.1892 82.7174 63.6349 82.6438 63.9859C82.5653 64.3627 82.5046 64.7319 82.4618 65.0934C82.4376 65.2979 82.3923 65.4762 82.3282 65.6692C82.0954 66.3697 81.8485 67.0688 81.5876 67.7666C81.3699 68.3518 81.1132 68.8626 80.6608 69.3041C80.2198 69.7334 79.7895 70.0913 79.3701 70.378C78.8094 70.7608 78.1393 70.9758 77.5239 71.2674C76.9306 71.5495 76.3773 71.8557 75.8556 72.2762C75.4095 72.6356 74.9824 72.9866 74.5743 73.3292C74.1209 73.7088 73.6833 74.1294 73.3719 74.6559C73.184 74.9732 72.981 75.2872 72.7628 75.5976C72.5041 75.9657 72.5588 76.6506 72.5451 77.0931C72.5083 78.2467 73.0332 79.3773 73.8253 80.2006C74.1178 80.5058 74.4186 80.899 74.7857 81.1203C75.5536 81.5818 76.4068 81.8859 77.181 82.3474C77.4913 82.5319 77.8364 82.6567 78.133 82.8581C78.5258 83.1245 78.943 83.4037 79.3848 83.696C79.6941 83.9008 79.9757 84.1075 80.2296 84.3158C80.7482 84.7406 81.271 85.1884 81.6381 85.7652C82.0141 86.3552 82.2718 86.8261 82.4113 87.1779C82.5158 87.4407 82.5996 87.7689 82.6627 88.1626C82.7925 88.9702 82.8419 89.7067 82.811 90.3723C82.6947 92.8705 82.0867 95.1878 80.987 97.3245C80.421 98.4236 79.7288 99.3995 78.9104 100.253C78.4567 100.725 78.0556 101.18 77.707 101.618C76.674 102.916 74.932 103.894 73.4129 104.428C72.4403 104.77 71.7418 105.019 71.3175 105.175C70.5432 105.459 69.7193 105.621 68.8454 105.661C68.3924 105.681 68.0186 105.658 67.724 105.593C67.3566 105.512 66.9849 105.423 66.609 105.326C66.1679 105.212 65.6913 105.001 65.1794 104.693C64.5791 104.33 64.132 104.023 63.8381 103.773C63.1218 103.161 62.3465 102.241 61.7027 101.437C60.9979 100.556 60.2801 99.6663 59.5494 98.7665C59.2148 98.3547 58.7856 97.8985 58.2618 97.3979C57.3666 96.5411 56.4693 96.5757 55.3374 96.5872C54.681 96.5946 54.0771 96.7917 53.507 97.1451C53.2371 97.3122 52.9768 97.4643 52.7264 97.6013C51.7639 98.1299 51.2684 98.8378 50.7309 99.7827C50.5205 100.152 50.2228 100.473 50.0419 100.85C49.7972 101.361 49.5524 101.835 49.3076 102.272C48.4423 103.818 47.3626 105.083 46.0687 106.068C45.5294 106.479 44.981 106.712 44.4234 106.767C44.1872 106.791 43.949 106.833 43.7092 106.892C43.2218 107.012 42.7698 107.032 42.3532 106.951C41.7943 106.842 41.2178 106.739 40.6238 106.644C40.4633 106.618 40.3107 106.576 40.1662 106.518C39.9579 106.435 39.7412 106.386 39.5571 106.258C39.1826 106 38.8176 105.814 38.4179 105.628C38.1317 105.495 37.9592 105.233 37.6678 105.087Z"   fill="#003366" >
</path>
</svg>
